<svg width="512" height="512" viewBox="0 0 512 512" fill="none" xmlns="http://www.w3.org/2000/svg">
<rect width="512" height="512" rx="90" fill="url(#paint0_linear_1_6)"/>
<g filter="url(#filter0_i_1_6)">
<path d="M276.688 421.376C259.28 421.376 241.531 418.816 223.44 413.696C205.52 408.576 188.965 399.872 173.776 387.584C158.587 375.296 146.384 358.656 137.168 337.664C127.952 316.672 123.344 290.389 123.344 258.816C123.344 227.072 127.952 200.704 137.168 179.712C146.384 158.549 158.587 141.909 173.776 129.792C188.965 117.504 205.52 108.8 223.44 103.68C241.531 98.56 259.28 96 276.688 96C291.877 96 306.384 98.1333 320.208 102.4C334.032 106.496 346.405 112.299 357.328 119.808C368.421 127.317 377.125 136.021 383.44 145.92C389.755 155.819 392.912 166.485 392.912 177.92C392.912 188.672 389.328 197.291 382.16 203.776C375.163 210.261 366.8 213.504 357.072 213.504C345.296 213.504 337.019 210.944 332.24 205.824C327.632 200.533 323.877 194.645 320.976 188.16C318.928 183.04 316.197 178.005 312.784 173.056C309.541 167.936 305.019 163.755 299.216 160.512C293.584 157.269 286.075 155.648 276.688 155.648C265.083 155.648 253.989 159.061 243.408 165.888C232.997 172.544 224.549 183.381 218.064 198.4C211.579 213.419 208.336 233.557 208.336 258.816C208.336 283.904 211.579 304.043 218.064 319.232C224.549 334.251 232.997 345.088 243.408 351.744C253.989 358.4 265.083 361.728 276.688 361.728C286.075 361.728 293.584 360.107 299.216 356.864C305.019 353.621 309.541 349.525 312.784 344.576C316.197 339.456 318.928 334.336 320.976 329.216C323.877 322.731 327.632 316.928 332.24 311.808C337.019 306.517 345.296 303.872 357.072 303.872C366.8 303.872 375.163 307.2 382.16 313.856C389.328 320.341 392.912 328.875 392.912 339.456C392.912 350.891 389.669 361.557 383.184 371.456C376.869 381.355 368.251 390.059 357.328 397.568C346.405 405.077 333.947 410.965 319.952 415.232C306.128 419.328 291.707 421.376 276.688 421.376Z" fill="url(#paint1_linear_1_6)"/>
</g>
<defs>
<filter id="filter0_i_1_6" x="123.344" y="96" width="269.568" height="329.376" filterUnits="userSpaceOnUse" color-interpolation-filters="sRGB">
<feFlood flood-opacity="0" result="BackgroundImageFix"/>
<feBlend mode="normal" in="SourceGraphic" in2="BackgroundImageFix" result="shape"/>
<feColorMatrix in="SourceAlpha" type="matrix" values="0 0 0 0 0 0 0 0 0 0 0 0 0 0 0 0 0 0 127 0" result="hardAlpha"/>
<feOffset dy="4"/>
<feGaussianBlur stdDeviation="2"/>
<feComposite in2="hardAlpha" operator="arithmetic" k2="-1" k3="1"/>
<feColorMatrix type="matrix" values="0 0 0 0 0 0 0 0 0 0 0 0 0 0 0 0 0 0 0.25 0"/>
<feBlend mode="normal" in2="shape" result="effect1_innerShadow_1_6"/>
</filter>
<linearGradient id="paint0_linear_1_6" x1="256" y1="0" x2="256" y2="512" gradientUnits="userSpaceOnUse">
<stop stop-color="#323741"/>
<stop offset="1" stop-color="#222834"/>
</linearGradient>
<linearGradient id="paint1_linear_1_6" x1="98" y1="256" x2="415" y2="256" gradientUnits="userSpaceOnUse">
<stop stop-color="#F2CA74"/>
<stop offset="1" stop-color="#DB69BB"/>
</linearGradient>
</defs>
</svg>
